<svg width="135" height="140" viewBox="0 0 135 140" fill="none" xmlns="http://www.w3.org/2000/svg">
<path opacity="0.5" d="M51.8565 40.973C54.6698 30.1723 57.483 19.4681 60.1992 8.66748C64.3706 20.5289 69.9001 31.9082 76.6908 42.4195C76.6908 40.3944 78.6309 39.1407 80.3771 38.08C89.5929 32.7761 98.7118 27.5686 107.928 22.2647C101.622 32.7761 97.4507 44.3482 93.3763 55.8239C105.017 55.631 116.658 57.5597 127.523 61.61C116.464 65.3709 105.987 70.5783 96.1896 76.943C98.8088 78.0038 100.264 80.7039 101.525 83.2112C105.793 91.4082 109.965 99.7015 114.233 107.898C101.719 104.138 89.3019 100.473 76.7878 96.712C77.1758 107.223 71.5493 117.156 70.6762 127.667C66.9899 117.253 61.5574 107.416 54.8638 98.6407C46.521 105.198 36.5291 109.731 26.0521 111.659C32.1637 102.305 36.9171 92.0832 40.2154 81.379C29.3504 78.3895 18.3884 75.4 7.52344 72.4106C17.8064 67.9746 27.9923 63.5386 38.2753 59.1027C30.6116 50.4236 24.791 40.2015 21.2017 29.3044C30.5145 34.0297 40.4094 37.5978 50.4984 40.1051" stroke="currentColor" stroke-width="5" stroke-miterlimit="10"/>
</svg>