<svg width="325" height="150" viewBox="0 0 325 150" fill="none" xmlns="http://www.w3.org/2000/svg">
<g opacity="0.5">
<path d="M10.6824 81.2535C8.02293 93.0103 5.30567 104.767 2.64625 116.585C2.53062 117.072 2.41501 117.62 2.58845 118.047C2.93533 119.265 4.5541 119.387 5.826 119.204C20.0481 117.438 34.3859 116.707 48.6659 117.072" stroke="currentColor" stroke-width="5" stroke-miterlimit="10"/>
<path d="M249.428 147.334C270.729 135.18 291.793 121.442 306.957 102.243C315.512 91.4393 322.179 78.2289 320.999 64.4901C319.347 45.4671 303.121 30.8476 286.305 21.6884C238.631 -4.32144 178.861 -2.3252 128.649 18.283C78.3781 38.95 36.7219 76.4676 2.5 118.447" stroke="currentColor" stroke-width="5" stroke-miterlimit="10"/>
</g>
</svg>
