<svg width="120" height="57" viewBox="0 0 120 57" fill="none" xmlns="http://www.w3.org/2000/svg">
<path opacity="0.5" d="M97.4898 2.49707C78.2808 3.42564 35.018 4.35421 16.149 7.98409C37.7378 10.601 74.796 13.5555 96.4699 14.3153C67.9963 15.9192 39.6078 18.2828 11.3042 21.6594C29.7483 22.4192 48.1923 23.0945 66.7214 22.588C80.2357 22.1659 94.26 21.1529 106.669 25.9646C78.1958 30.4386 49.3823 32.8867 20.5687 33.2244C50.1472 33.3932 79.7257 35.3347 109.304 37.1919C80.0657 38.2893 42.3276 42.088 13.0891 43.1854C30.0032 45.2114 55.4169 44.536 72.3311 46.6464C80.6607 47.6594 95.7899 48.3347 103.864 50.4451C78.7908 52.2179 46.8324 53.8217 21.6737 54.4971" stroke="currentColor" stroke-width="5" stroke-miterlimit="10"/>
</svg>